<?xml version="1.0" encoding="UTF-8"?>
<svg id="_图层_2" data-name="图层 2" xmlns="http://www.w3.org/2000/svg" xmlns:xlink="http://www.w3.org/1999/xlink" viewBox="0 0 489 502.2">
  <defs>
    <linearGradient id="_未命名的渐变" data-name="未命名的渐变" x1="145.24" y1="608.75" x2="392.68" y2="367.85" gradientTransform="translate(-20.94 -237.53)" gradientUnits="userSpaceOnUse">
      <stop offset="0" stop-color="#cf41e8"/>
      <stop offset="1" stop-color="#10f2b0"/>
    </linearGradient>
  </defs>
  <g id="katman_1" data-name="katman 1">
    <path d="M244.3,0h.4c134.9,0,244.3,109.4,244.3,244.3v13.6c0,134.9-109.4,244.3-244.3,244.3h-.4C109.4,502.2,0,392.8,0,257.9v-13.6C0,109.4,109.4,0,244.3,0Z" style="fill: #232323;"/>
    <path d="M349,189c-.8,.9-1.8,1.6-2.9,2-1.1,.5-2.3,.7-3.5,.7H116.1c-8,0-12.1-10-6.5-16l37.2-39.5c.8-.9,1.8-1.6,3-2.1,1.1-.5,2.3-.7,3.5-.7h227.4c8.1,0,12.1,10.1,6.4,16.1l-38.1,39.5Zm0,176.6c-1.7,1.7-4,2.7-6.4,2.7H116.1c-8,0-12.1-9.8-6.5-15.6l37.2-38.6c.8-.9,1.9-1.6,3-2,1.1-.5,2.3-.7,3.5-.7h227.4c8.1,0,12.1,9.9,6.4,15.7l-38.1,38.5Zm0-140.5c-1.7-1.7-4-2.7-6.4-2.7H116.1c-8,0-12.1,9.8-6.5,15.6l37.2,38.6c.8,.9,1.9,1.6,3,2,1.1,.5,2.3,.7,3.5,.7h227.4c8.1,0,12.1-9.9,6.4-15.7l-38.1-38.5Z" style="fill: url(#_未命名的渐变);"/>
  </g>
</svg>