
<svg width="23" height="22" viewBox="0 0 23 22" fill="none" xmlns="http://www.w3.org/2000/svg">
<path d="M3.57128 6.22736C3.57937 6.3129 3.60093 6.39885 3.63473 6.48117C3.77083 6.80957 4.0903 7.0231 4.44592 7.0231H6.20205L6.20205 20.1941H7.95818L7.95818 7.0231H9.71431C10.069 7.0231 10.3894 6.80957 10.5255 6.48117C10.5703 6.37229 10.5924 6.25831 10.5924 6.14504C10.5924 5.91674 10.5028 5.69193 10.3351 5.52422L7.70093 2.89002C7.35761 2.5467 6.80174 2.5467 6.45929 2.89002L3.8251 5.52422C3.63675 5.71256 3.547 5.97073 3.57128 6.22736ZM12.3519 16.5995C12.3277 16.8561 12.4174 17.1143 12.6058 17.3026L15.24 19.9368C15.5824 20.2802 16.1383 20.2802 16.4816 19.9368L19.1158 17.3026C19.2835 17.1349 19.373 16.9101 19.373 16.6818C19.373 16.5686 19.3509 16.4546 19.3061 16.3457C19.17 16.0173 18.8497 15.8038 18.495 15.8038H16.7388V2.63277H14.9827L14.9827 15.8038H13.2266C12.8718 15.8038 12.5515 16.0173 12.4154 16.3457C12.3816 16.428 12.36 16.514 12.3519 16.5995Z" fill="#FCFCFD"/>
</svg>